<?xml version="1.0" encoding="UTF-8"?>
<svg id="Calque_1" xmlns="http://www.w3.org/2000/svg" version="1.1" viewBox="0 0 133 69.68">
  <!-- Generator: Adobe Illustrator 29.4.0, SVG Export Plug-In . SVG Version: 2.1.0 Build 152)  -->
  <defs>
    <style>
      .st0 {
        fill: #e30613;
      }
    </style>
  </defs>
  <polyline class="st0" points="133 8.53 132.71 6.83 124.45 8.27 123.01 0 121.31 .3 122.75 8.56 114.49 9.99 114.78 11.69 123.04 10.26 124.48 18.52 126.17 18.23 124.74 9.96 133 8.53"/>
  <polyline class="st0" points="18.52 59.69 18.23 57.99 9.96 59.42 8.53 51.16 6.83 51.46 8.26 59.72 0 61.15 .29 62.85 8.56 61.42 9.99 69.68 11.69 69.38 10.26 61.12 18.52 59.69"/>
  <g>
    <path class="st0" d="M71.43,22.85c-2.71,0-4.97,2.47-5.79,3.77l-.62.82s.01-4.11.02-4.41c-.12-.06-.22-.12-.32-.18-2.68,1.21-5.52,2.41-8.29,2.96,0,.22,0,.58,0,.82.2.04,1.44.27,1.44.27,1.57.26,1.84,1.04,1.84,2.69,0,.02-.04,14.22-.04,14.22,0,1.5-1.56,1.63-3.15,1.62h-.25s-.11,0-.11,0c-.91,0-1.86,0-2.41-.56-.28-.28-.42-.68-.42-1.18,0,0,.04-14.48.04-14.49,0-2.15-.54-3.79-1.61-4.86-1.03-1.04-2.57-1.57-4.58-1.58-2.66,0-4.98,1.63-7.02,3.07l-.98.68-.43.3s0-3.5,0-3.74c-.1-.09-.22-.19-.34-.29-.24.1-1.26.56-1.26.56l-2.22.94-.23.09s-3.97,1.24-4.34,1.36c0,.23,0,.62,0,.85.25.07,1.62.47,1.63.47,1.24.34,1.45.73,1.45,1.73l-.04,14.83c0,.57-.15.99-.45,1.29-.53.53-1.43.53-2.46.53-1.34,0-4.07.03-4.07-3.22V13.67c0-3.25,2.85-3.24,4.19-3.24h.46c0-.29,0-1.03,0-1.03h-15.39v.99c.22,0,.46,0,.46,0,1.34,0,4.09,0,4.09,3.25v28.56c0,1.01-.31,1.79-.84,2.32-.82.82-2.1.93-3.35.92,0,0-.24,0-.46,0v1.04h26.42v-1.03c-.23,0-.51,0-.51,0-.98,0-1.89-.02-2.41-.53-.24-.24-.36-.58-.36-1,0,0,.04-15.94.04-15.94l.12-.08c1.31-.82,3.23-1.81,4.96-1.8,1.31,0,2.34.37,3.06,1.09.78.79,1.18,2,1.17,3.59l-.04,13.06c0,1.63-1.78,1.63-2.83,1.62h-.25c0,.29,0,1.02,0,1.02h24.69s0-.73,0-1.02h-.52c-1.93,0-3.2,0-3.79-.6,0,0-.33-.27-.33-.89,0-.46.04-13.68.04-13.68,0-1.55.58-2.45,1.06-2.93.57-.56,1.32-.88,2.09-.88h0c.88,0,1.35.51,1.79,1,.46.51.9.99,1.86.99.89,0,1.6-.33,2.07-.91.38-.48.59-1.12.59-1.89,0-2.44-1.91-2.81-3.06-2.82"/>
    <path class="st0" d="M111.38,43.51c-1.06,1.05-2.42,1.58-4.07,1.58-2.78,0-4.61-2.31-5.39-3.29l-.2-.25.04-14.2.13-.08c1.54-.96,3.01-1.45,4.38-1.44,5.53.02,7.52,6.15,7.51,10.27,0,1.88-.32,5.34-2.4,7.41h0ZM86.4,41.29l-.05.07c-1.39,1.91-2.99,2.87-4.72,2.87-2.23,0-3.45-1.31-3.45-3.68.01-3.44,3.95-4.63,6.83-5.5l1.06-.33.36-.11-.02,6.68h0ZM116.21,25.27c-1.58-1.58-3.67-2.43-6.07-2.43-2.83-.01-5.64,1.14-7.92,3.25l-.46.42s0-3.59,0-3.83c-.08-.06-.14-.11-.23-.18-2.24,1.2-4.85,2.24-8.17,3.25v.53c.24.05,1.45.32,1.47.32.68.18,1.61.43,1.61,1.63,0,0-.02,6.65-.04,13.87,0,.01-.43,1.04-1.35,1.72-.4.3-1.02.46-1.47.46-1.89,0-1.89-2.4-1.88-4.14l.03-10.66c0-4.36-2.33-6.68-6.76-6.69-1.03,0-1.91.05-3,.69,0,0-5.57,2.98-5.66,3.02-1.74.89-2.74,2.4-2.74,4.14,0,.59.26.93.72.93.85,0,3.36-.71,3.44-1.83.23-3.11,1.16-3.96,4.3-3.96,1.36,0,2.48.4,3.23,1.16.78.78,1.17,1.91,1.16,3.36v3.12s-6.67,2.29-6.67,2.29c-3.7,1.34-6.88,2.5-6.89,6.41,0,1.45.47,2.69,1.37,3.59.97.98,2.41,1.53,4.04,1.53,3.37.01,5.71-1.98,7.81-4.03l.42-.4.05.58c.12,1.45.76,3.88,3.68,3.89,2.2,0,4.13-.79,5.62-2.84.27-.38.56-.93.55-.95v.17c-.02,6.97-.04,14.34-.04,14.51,0,.49-.31.79-.31.79-.49.49-1.48.52-2.53.52h-.4c0,.29,0,1.04,0,1.04h13.35s0-.75,0-1.04c-.29,0-.72,0-.72,0-1.58,0-2.94,0-3.62-.7-.3-.3-.46-.72-.46-1.24,0,0,.03-11.55.03-11.55l.37.14c1.22.46,2.88.72,4.55.73,3.04,0,6-1.25,8.31-3.55,2.67-2.66,4.15-6.32,4.16-10.3.01-3.06-1.04-5.87-2.88-7.72"/>
  </g>
</svg>