<?xml version="1.0" encoding="UTF-8"?>
<svg id="Calque_1" xmlns="http://www.w3.org/2000/svg" version="1.1" viewBox="0 0 839 553">
  <!-- Generator: Adobe Illustrator 29.4.0, SVG Export Plug-In . SVG Version: 2.1.0 Build 152)  -->
  <defs>
    <style>
      .st0 {
        fill: #39433a;
      }

      .st1 {
        fill: #fff;
      }

      .st2 {
        fill: #779186;
      }
    </style>
  </defs>
  <path class="st2" d="M798.71,283.47l-.18-.29c-.28-.46-.97-.39-1.16.11-1.31,3.49-2.41,7.06-3.32,10.73-.79,3.17-.96,5.59-.53,7.27,1.62,1.11,3.34,1.38,5.16.83,2-.61,3.75-1.67,5.25-3.2,2.5-2.55,5.01-5.1,7.52-7.65,3.41-3.45,5.52-5.39,6.35-5.83,2.85-1.51,6.03-1.19,9.56.97,2.92,1.79.4,16.05-.26,19.29l-.18-1.02c-.07-.37-.18-.39-.35-.06-1.28,2.44-2.11,4.72-2.49,6.85-.19,1.07.3,2.1,1.46,3.11,1.14,1.47,2.58,2.87,4.32,4.21,2.09,1.61,3.45,2.96,4.07,4.05,2.11,3.71,1.77,7.38-1.04,11.01-3.88.53-7.25,2.53-11.16.94-4.44-1.81-10.79-4.64-19.05-8.5-4.7-2.19-8.52-3.2-13.46-4.72-2.23-.69-5.05-2.43-8.45-5.2-2.01-1.64-4.48-3.09-6.21-4.27-1.78-1.22-3.06-2.56-3.83-4.02-2.02-3.81-2.69-8.48-2-14-.79-1.87-.78-4.19.01-6.98,1.13-3.16,1.6-6.28,1.4-9.37-.26-3.94-2.11-7.21-5.55-9.81-8-6.03-16.84-10.6-26.51-13.69-7.72-2.47-19.81-5.01-26.43-.79-14.59,9.31-34.35,11.85-48.08.32-5.07-4.26-5.81-9.4-4.64-15.5.86-4.5.15-7.26-3.21-9.97-8.79-7.07-18.2-12.62-27.01-17.68-7.5-4.31-13.37-5.98-22.09-3.48-4.14,1.2-8.91,4.06-13.38,4.44-13.44,1.12-20.17-6.56-24.31-19-2.38-7.13-3.78-14.88-4.2-23.25-.61-12.05-13.64-12.67-22.48-13.88-12.65-1.72-25.08-2.84-37.3-3.37-.79-.03-1.52.42-1.85,1.14-3.13,6.94-7.78,16.69-14.25,20.33-10.52,5.93-23.93,5.73-33.29-2.27-3.55-3.03-6.18-6.26-7.89-9.67-2.95-5.91-3.3-15.76-5.32-20.93-.82-2.09-2.33-3.45-4.53-4.06-2.77-.77-6.96-1.78-10.32-2.96-9.29-3.27-15.57-5.46-18.86-6.57-3.55-1.2-6.74-1.04-9.55.49-6.99,3.8-13.18,6.43-18.56,7.9-5.55,1.51-9.64,2.21-12.28,2.09-14.81-.68-29.38.23-43.7,2.74-5.84,1.02-11.64,2.92-17.91,4.71-4.3,1.23-7.74,1.44-11.68,2.21-2.37.46-3.37,1.97-3.01,4.53.34,2.45,1.11,4.51,2.32,6.16-.15.03-.25.15-.3.35-.03.13-.01.27.06.42,1.58,3.61,3.18,7.06,5.35,10.47,7.39,11.59,12.1,19.11,14.15,22.56,4.5,7.58,7.32,15.28,6.49,24.04-.13,1.39-.57,3.45-1.31,6.19-2.39,7.56-7.27,12.84-14.62,15.85-10.8,4.41-16.66,6.8-17.57,7.15-8.42,3.23-16.05,4.21-25.41,6.16-3.02.62-7.04,1.75-6.48,5.07.49,2.93,1.61,5.01,3.37,6.24-.27.41-.18.94.25,1.59,3.57,5.39,6.67,9.37,9.3,11.95,9.82,9.59,18.86,17.58,24.1,29.42.04.09,1.28,2.96,3.72,8.6.67,1.55,2.08,3.85,3.22,4.96,10.61,10.35,22.57,18.52,29.91,31.86,2.52,4.57,4.48,11.14,2.77,16.11-.39,1.13-.76,2.24-1.1,3.33-5.58,6.71-11.94,12.58-19.08,17.62-3.9,2.75-3.63,6.2-2.47,10.64.07.27.28.43.62.5-.15.31-.18.57-.09.76,1.1,2.36,2.83,4.85,5.18,7.48,8.03,8.96,16.51,16.35,25.45,22.17,10.55,6.87,17.82,11.67,21.8,14.38,4.63,3.15,9.41,5.77,14.34,7.84.48.2.62.54.43,1.02l-3.3,8.39c-.07.2-.1.4-.07.61l.05.32c-.42.29-.86.58-1.05,1.09-1.32,3.36-2.96,6.5-4.92,9.41-.22.32-.69.36-.96.08-5.64-5.8-10.94-10.16-17.94-14.31-11.32-6.71-23.33-13.81-33.81-21.97-10.72-8.35-19.13-18.55-25.23-30.58-.65-1.27-1.23-2.81-1.76-4.63-.45-1.54-.93-3.13-1.44-4.76-.31-6.37,1.07-12.36,4.12-17.99,3.28-6.07,7.75-11.17,13.4-15.32,1.79-1.03,3.26-2.37,4.41-4.03.99-1.43.82-3.05-.28-4.25-1.21-1.33-3.65-3.78-7.33-7.35-4.25-4.12-7.39-5.51-12.81-7.77-9.94-4.15-20.12-6.38-30.54-6.68-3.73-.11-10.94-.31-21.62-.6-6.33-.17-12.38.86-18.16,3.09-2.85,1.1-6.02,3.08-9.52,5.95-5.15,4.21-7.16,9.46-6.04,15.73.38,5.49.74,11.05,1.08,16.68.21,3.37-.32,7.57-1.58,12.6-1.81,4.71-3.92,8.42-6.35,11.12-2.97,3.31-4.91,5.52-5.81,6.63-3.88,4.8-8.11,7.17-12.88,10.12-2.2,1.37-2.52,3-.96,4.89.83,1.01,2.37,2.06,4.64,3.15,2.71,1.14,5.46,2.04,8.26,2.69,4.15.97,6.94,1.75,8.35,2.34,7.02,2.9,12.88,6.86,17.57,11.88,3.13,3.36,3.9,7.82,2.29,12.16-.39,1.05-.75,2.01-1.1,2.9-1.87,3.81-4.23,6.07-7.08,6.78-4.75,1.19-10.36.65-16.83-1.63-6.62-2.34-12.63-6.53-18.31-10.68-7.98-5.84-14.97-10.87-18.38-19.41-.57-1.43-1.25-2.83-2.06-4.18.13-1.38.26-2.92.39-4.63.73-9.23,4.69-16.85,11.87-22.85,3.67-3.07,7.59-5.84,11.74-8.29,1.17-.69,2.21-1.45,3.12-2.3.76-.7,1.38-1.5,1.86-2.39,1.98-4.68,2.11-9.38.4-14.11-2.41-6.68-5.25-14.04-14.26-11.68-9.2,2.42-16.15,7.83-23.32,14.58-3.1,2.92-10.17,9.6-21.2,20.05-4.14,3.92-9.65,5.29-9.38,12.52.07,1.79.39,3.18.96,4.15-.22.5-.27,1.03-.15,1.6.23,1.08.32,2.02.28,2.82-.02.35-.16.63-.42.84l-1.99,1.65-9.83,4.14c-.42.18-.91-.02-1.08-.45-2.55-6.56-3.94-12.27-11.57-14.08-6.95-1.64-11.56-2.89-13.81-3.76-18.43-7.05-29.08-11.17-31.96-12.34-1.71-.7-2.95-1.53-4.72-2.7-6.73-4.45-13.49-8.94-20.28-13.49l-3.08-2.11c-.27-.19-.32-.42-.16-.7,3.55-6.19,8.59-15.23,15.1-27.14,2.68-4.89,5.85-9.38,9.52-13.49.21-.23.49-.4.8-.47.97-.22,1.97-.11,2.99.34,3.98,1.73,8.57,3.65,13.78,5.76.99.4,1.64,1.36,1.64,2.44v2.7c0,1.05.59,2.01,1.53,2.48,4.66,2.37,8.18,4.3,10.56,5.81,2.25,1.44,4.71,1.95,6.95,2.66,5.11,1.63,4.8,8.12,4.11,12.56-.46,2.93-.7,4.63-.73,5.11-.11,2.61-.28,4.87-.51,6.8-.05.47.2.93.63,1.14,10.15,4.86,20.24,3.64,29.22-2.79,2.78-1.99,6.28-3.06,8.98-5.17,4.98-3.89,9.88-7.89,14.69-11.99,7.93-6.75,16.4-11.95,25.41-15.6,7.37-2.99,17.06-5.47,25.66-10.85,5.53-3.46,11.06-6.93,16.57-10.42,9.3-5.87,19.31-8.79,30.04-8.78,7,.01,15.92.43,26.75,1.26l7.58.71c1.37.13,1.76-.43,1.19-1.68-1.29-2.79-2.93-5.23-4.9-7.33-5.65-6.02-11.65-11.62-16.21-17.43-6.09-7.77-11.25-15.33-15.47-22.66-1.65-2.87-3.02-6.28-4.11-10.23-.45-2.83-.29-5.63.48-8.38.73-2.58,2.09-4.93,4.1-7.04,6.53-6.9,15.61-9.27,24.99-10.62,7.31-1.04,13.75-1.98,19.33-2.83,8.05-1.22,14.94-3.15,20.67-5.79,1.31-1.55,2.03-2.61,2.15-3.19,1.6-7.78-7.21-21.66-11.86-27.65-7.68-9.87-15.4-19.56-17-30.97-.21-1.45-.57-2.89-1.09-4.32.33-1.54.53-3.22.6-5.03.78-19.91,18.55-24.61,34.58-28.97,6.57-1.78,15.3-3.88,26.21-6.29,4.04-.89,10.82-3.13,13.33-6.37.45-.58.87-1.15,1.25-1.71,2.83-4.1,3.12-7.84.85-11.22-2.68-3.99-8.81-6.73-13.63-7.68-11.52-2.29-21.79-4.44-30.81-6.46-3.03-.67-6.36-1.07-9.99-1.18-8.63-.26-15,3.33-19.09,10.76-6.33,11.51-17.33,23.17-30.93,14.38-6.68-4.32-13.27-12.47-14.63-20.97-.7-4.42-.91-11.06-5.17-13.03-6.69-3.1-11.6-5.45-14.73-7.05-9.42-4.81-14.98-9.53-23.24-16.17-1.16-.94-3.88-2.57-8.15-4.9-.23-.12-.43-.17-.6-.16-.25,0-.46.09-.61.24-.29-.56-.78-1.15-1.46-1.78-.25-.22-.33-.49-.25-.81,1.19-4.8,3.11-9.14,5.78-13.02.25-.35.57-.45.97-.3,12.57,4.85,25.03,9.19,37.36,13.04,8.35,2.61,16.84,5.79,23.55,10.72,3.75,2.76,5.7,6.48,5.85,11.16.06,1.92.35,7.43.86,16.52.3,5.27,4.08,9,8.14,3.27,4.23-5.96,8.53-11.87,12.9-17.73,3.12-4.2,7.19-7.35,12.71-7.33,7.87,0,16.32,1.02,25.34,3.03,7.02,1.55,19.78,4.64,38.28,9.25,5.82,1.45,11.19,3.83,16.12,7.12,7.45,4.99,10.71,12.11,9.78,21.38-.57,5.66-1.53,9.58-.47,12.63.45,1.31,1.88,2,3.19,1.55,1.5-.52,3.06-1.44,4.68-2.75,2.49-2.02,5.88-4.88,10.16-8.59,1.66-1.44,3.46-2.63,5.4-3.57,6.06-2.94,15.28-1.47,21.47.6,12.29,4.11,23.85,10.3,35.32,16.13,9.83,4.99,19.47,13.06,20.55,25,.28,3.08-.45,7.36-.66,10.01-.15,1.95.71,3.01,2.59,3.18,4.4.39,7.29.62,9.64-3.36,2.61-4.43,5.06-9.53,7.35-15.28.91-2.27,3.27-3.94,5.92-4.52,6.99-1.53,12.96-1.97,17.91-1.34,15.54,1.99,32.77,3.6,51.69,4.83,5.33.35,10.16,1.4,14.49,3.14,7.43,2.98,10.75,13.5,11.57,20.85.61,5.47.76,11.41.43,17.82-.23,4.63.51,10.82,5.68,11.47,1.43.18,3.58-.37,6.45-1.66,4.62-2.07,8.86-3.5,12.73-4.28,1.15-.24,2.84-.02,5.07.66,2.66.81,7.13,2.68,13.42,5.6,6.33,2.94,10.72,5.01,13.17,6.21,11.53,5.66,22.31,12.18,32.33,19.56,2.34,1.73,3.84,3.99,4.51,6.79.93,3.95.73,7.36-.6,10.21-.76,1.63-.61,2.7-.3,4.58.24,1.5.37,2.27.39,2.32.75,2.2,4.15,2.38,5.97,1.76,4.35-1.49,8.16-4.39,11.42-8.7,4.13-5.46,13.85-1.8,19.75.17,18.66,6.24,28.83,10.98,54.72,21.88,6.6,2.78,12.23,6.04,16.9,9.77,5.81,4.65,7.78,10.49,5.91,17.54-.56,2.08-.43,3.91-.56,6.02h0Z"/>
  <path class="st0" d="M345.32,106.16c-3.98-4.35-8.79-7.06-14.43-8.13-8.78-1.65-19.33-3.81-31.65-6.48-9.69-2.09-20.52-1.68-26.38,7.3-4.63,7.09-9.47,16.44-18.22,19.14-6.6,2.03-12.98-.33-17.84-5.05-4.54-4.39-8.11-8.48-10.21-14.46-1.24-3.51-1.5-7.56-2.09-11.2-.39-2.34-1.79-4.17-4.22-5.5-1.06-.58-5.38-2.73-12.95-6.45-7.13-3.49-13.52-7.61-19.19-12.34-5.92-4.94-10.47-7.75-16.26-10.84-.42-.22-.6-.72-.43-1.16l3.14-8.27c.15-.15.36-.23.61-.24.17,0,.37.04.6.16,4.27,2.33,6.99,3.96,8.15,4.9,8.26,6.64,13.82,11.36,23.24,16.17,3.13,1.6,8.04,3.95,14.73,7.05,4.26,1.97,4.47,8.61,5.17,13.03,1.36,8.5,7.95,16.65,14.63,20.97,13.6,8.79,24.6-2.87,30.93-14.38,4.09-7.43,10.46-11.02,19.09-10.76,3.63.11,6.96.51,9.99,1.18,9.02,2.02,19.29,4.17,30.81,6.46,4.82.95,10.95,3.69,13.63,7.68,2.27,3.38,1.98,7.12-.85,11.22Z"/>
  <path class="st0" d="M768.74,287.1c-.76-2.52-1.58-4.31-2.46-5.37-1.18-1.42-3.3-3.18-6.37-5.28-12.36-8.47-28.83-15.2-44.05-14.11-1.72.12-3.62.82-5.7,2.11-14.94,9.27-36.33,12.35-49.68-1.49-4.41-4.56-3.97-9.83-2.67-15.71.31-1.39.27-2.53-.12-3.4-.73-1.64-1.24-2.61-1.55-2.92-5.73-5.81-14.14-10.85-22.15-15.55-7.29-4.28-11.97-6.74-14.05-7.39-7.22-2.25-13.6-.84-20.71,2.43-7.39,3.41-14.57,2.98-21.53-1.27-3.59-2.19-6.43-5.96-8.5-11.3-3.52-9.05-5.49-18.29-5.9-27.74-.4-8.86-7.77-11.57-15.26-12.7-14.88-2.23-29.7-3.72-44.47-4.47-.72-.04-1.39.37-1.7,1.02-3.87,8.4-8.5,18.29-17.22,21.94-10.9,4.56-22.34,3.52-31.1-4.27-6.13-5.45-8.65-10.48-10.12-19.23-.59-3.49-1.5-7.27-2.73-11.34-.48-1.57-1.92-2.7-4.31-3.41-8.75-2.59-17.28-5.5-28.59-9.48-4.1-1.44-7.81-1.2-11.12.73-8.83,5.12-21.07,10-31.42,9.56-14.09-.6-28.24.33-42.46,2.79-5.78,1-12.52,3.28-18.77,5.01-3.28.91-6.39,1.26-9.76,1.65-1.21-1.65-1.98-3.71-2.32-6.16-.36-2.56.64-4.07,3.01-4.53,3.94-.77,7.38-.98,11.68-2.21,6.27-1.79,12.07-3.69,17.91-4.71,14.32-2.51,28.89-3.42,43.7-2.74,2.64.12,6.73-.58,12.28-2.09,5.38-1.47,11.57-4.1,18.56-7.9,2.81-1.53,6-1.69,9.55-.49,3.29,1.11,9.57,3.3,18.86,6.57,3.36,1.18,7.55,2.19,10.32,2.96,2.2.61,3.71,1.97,4.53,4.06,2.02,5.17,2.37,15.02,5.32,20.93,1.71,3.41,4.34,6.64,7.89,9.67,9.36,8,22.77,8.2,33.29,2.27,6.47-3.64,11.12-13.39,14.25-20.33.33-.72,1.06-1.17,1.85-1.14,12.22.53,24.65,1.65,37.3,3.37,8.84,1.21,21.87,1.83,22.48,13.88.42,8.37,1.82,16.12,4.2,23.25,4.14,12.44,10.87,20.12,24.31,19,4.47-.38,9.24-3.24,13.38-4.44,8.72-2.5,14.59-.83,22.09,3.48,8.81,5.06,18.22,10.61,27.01,17.68,3.36,2.71,4.07,5.47,3.21,9.97-1.17,6.1-.43,11.24,4.64,15.5,13.73,11.53,33.49,8.99,48.08-.32,6.62-4.22,18.71-1.68,26.43.79,9.67,3.09,18.51,7.66,26.51,13.69,3.44,2.6,5.29,5.87,5.55,9.81.2,3.09-.27,6.21-1.4,9.37h0Z"/>
  <path class="st0" d="M297.15,220.66c-2.13-5.33-4.17-9.55-6.12-12.68-6.93-11.11-17.37-21.43-21.31-34.49-1.67-5.55-1.79-11.87-.37-18.96.52,1.43.88,2.87,1.09,4.32,1.6,11.41,9.32,21.1,17,30.97,4.65,5.99,13.46,19.87,11.86,27.65-.12.58-.84,1.64-2.15,3.19Z"/>
  <path class="st0" d="M318.71,221.94c.16,5.67-.98,10.96-3.42,15.87-2.23,4.5-5.63,7.77-10.18,9.8-7.63,3.41-14.52,6.27-20.67,8.58-8.4,3.14-17.48,4.24-26.44,6.22-1.76-1.23-2.88-3.31-3.37-6.24-.56-3.32,3.46-4.45,6.48-5.07,9.36-1.95,16.99-2.93,25.41-6.16.91-.35,6.77-2.74,17.57-7.15,7.35-3.01,12.23-8.29,14.62-15.85Z"/>
  <path class="st0" d="M683.49,229.93c.18,0,.29,1.08.35,3.25,0,.31-.1.46-.31.46s-.32-.15-.32-.45c0-2.17.11-3.26.28-3.26h0Z"/>
  <path class="st0" d="M468.05,240.31l4.29,3.89c.23.2.25.55.04.78l-8.66,9.57c-.2.22-.53.25-.75.06l-3.94-3.16c-.24-.2-.28-.54-.08-.78l8.3-10.3c.2-.24.57-.27.8-.06h0Z"/>
  <path class="st0" d="M332.13,247.23c.66,0,1.41.04,2.24.14.37.05.62.24.75.59l16.34,43.49c.13.34-.13.71-.49.71h-6.59c-.42,0-.79-.26-.93-.66l-2.57-7.42c-.08-.24-.42-.42-.84-.43-.48-.02-3.11-.02-7.91-.02s-7.43,0-7.9.02c-.42.01-.76.19-.85.43l-2.56,7.42c-.14.4-.52.66-.93.66h-6.59c-.37,0-.62-.36-.49-.71l16.33-43.49c.13-.35.38-.54.75-.59.83-.1,1.57-.14,2.24-.14h0Z"/>
  <path class="st0" d="M433.82,336.89c.07-6.75.08-27.56.04-62.43,0-4.72-1-7.96-6.38-7.65-3.19.18-4.87,1.91-5.06,5.18-.03.42-.03,6.99-.01,19.7,0,.31-.15.46-.46.46h-6.54c-.32,0-.48-.16-.48-.49v-43.89c0-.37.18-.55.55-.55h6.3c.4,0,.6.2.6.6v15.41c0,.37.13.42.39.16,3.52-3.52,7.25-4.63,11.2-3.33,5.28,1.74,7.32,6.58,7.33,11.77.05,35.53.05,66.61,0,93.26,0,.51-.25.77-.76.77h-5.93c-.49,0-.73-.24-.73-.73v-2.16c0-.51-.16-.57-.49-.18-2.55,3.05-5.76,4.15-9.63,3.31-5.02-1.09-7.81-5.1-8.24-10.05-.47-5.44-.41-10.04.18-13.79,1.4-8.91,11.83-12.42,17.73-5.23.26.31.39.27.39-.14Z"/>
  <path class="st0" d="M525.91,283.5c0,.84.68,1.53,1.52,1.53h2.33c.4,0,.59.21.59.63v5.9c0,.44-.22.66-.66.67-3.2.03-5.09-.06-5.68-.27-3.57-1.26-5.38-3.45-5.42-6.56-.13-13.55-.16-26.12-.09-37.73,0-.3.15-.45.46-.45h6.54c.25,0,.44.2.44.44l-.03,35.84h0Z"/>
  <path class="st0" d="M612.44,254.14c0,.29-.24.53-.53.53l-6.38.03c-.29,0-.53-.24-.53-.53l-.03-6.38c0-.29.24-.53.53-.53l6.38-.03c.29,0,.53.24.53.53l.03,6.38Z"/>
  <path class="st0" d="M259.5,313.94c-2.29-2.45-4.54-4.8-6.74-7.05-7.98-8.16-14.41-17.31-20.58-27.31-4.67-7.57-8.44-15.39-4.6-24.26,1.09,3.95,2.46,7.36,4.11,10.23,4.22,7.33,9.38,14.89,15.47,22.66,4.56,5.81,10.56,11.41,16.21,17.43,1.97,2.1,3.61,4.54,4.9,7.33.57,1.25.18,1.81-1.19,1.68l-7.58-.71Z"/>
  <path class="st1" d="M326.14,276.07l5.73-16.35c.09-.28.49-.28.58,0l5.67,16.37c.07.2-.08.41-.3.41l-11.38-.02c-.22,0-.37-.21-.3-.41h0Z"/>
  <path class="st0" d="M588.88,263.06v-2.3c0-.49.24-.73.72-.73h5.74c.66,0,.99.33.99.99.01,10.2,0,20.52-.04,30.97-.03,9.86-8.15,14.38-17.11,12.87-3.33-.55-5.95-1.99-7.84-4.31-.19-.23-.17-.56.03-.77l4.03-4.02c.25-.25.66-.25.91,0,1.71,1.69,3.38,2.55,5.02,2.59,5.87.15,8.33-2.95,7.39-9.3-.03-.21-.11-.23-.25-.06-2.61,3.3-6.11,4.39-10.5,3.26-4.58-1.17-6.95-5.22-7.46-10.01-.59-5.57-.44-10.48.44-14.75.94-4.53,4.57-7.57,9.12-7.89,3.17-.23,5.98.97,8.42,3.62.26.28.39.23.39-.16Z"/>
  <path class="st0" d="M365.43,263.52c3.77-4.5,8.38-5.13,13.84-1.9.35.21.43.67.18.99l-4.19,5.19c-.18.22-.49.28-.73.14-3.11-1.82-6.82-1.71-8.67,1.15-.65,1.02-.99,3-1,5.93-.02,5.83-.02,11.36.01,16.58,0,.37-.19.56-.57.56h-6.62c-.27,0-.48-.21-.48-.48v-30.82c0-.55.27-.82.81-.82h6.13c.41,0,.75.34.75.75v2.53c0,.56.18.63.54.2h0Z"/>
  <path class="st0" d="M382.58,276.11c0-2.06.1-3.83.29-5.31,1.29-9.81,10.44-12.67,19.01-10.48,2.7.69,4.93,2.08,6.68,4.16.14.17.12.41-.03.55l-4.68,4.25c-.13.11-.32.11-.45,0-3.05-2.64-6.34-3.24-9.86-1.8-3.49,1.42-3.56,5.31-3.56,8.63s.08,7.21,3.57,8.63c3.52,1.43,6.81.83,9.85-1.81.14-.11.33-.11.45,0l4.69,4.24c.15.15.17.39.04.55-1.76,2.08-3.99,3.47-6.69,4.17-8.56,2.2-17.72-.65-19.01-10.47-.2-1.48-.3-3.25-.3-5.31h0Z"/>
  <path class="st0" d="M458.19,279.12c-1.95,0-2.46.85-1.51,2.56l.42.75c1.01,1.84,2.56,2.92,4.63,3.26,3.06.5,5.9-.25,8.53-2.23.13-.1.26-.08.4.05l4.54,4.13c.15.12.14.25-.01.38-4.92,4.03-10.16,5.41-15.71,4.14-10.25-2.33-10.9-11.82-9.97-20.39.85-7.86,5.99-12.18,13.75-12.13,10.56.08,13.07,10.11,12.81,19.07-.01.3-.16.45-.46.45l-17.42-.04h0Z"/>
  <rect class="st0" x="483.19" y="259.68" width="26.96" height="32.84" rx="12.19" ry="12.19"/>
  <rect class="st0" x="535.89" y="259.68" width="26.96" height="32.84" rx="12.17" ry="12.17"/>
  <path class="st0" d="M629.03,279.13c-1.95,0-2.46.85-1.51,2.56l.42.75c1.02,1.83,2.57,2.92,4.64,3.25,3.06.49,5.9-.26,8.53-2.25.13-.09.26-.08.4.05l4.55,4.12c.15.13.14.25-.01.38-4.91,4.04-10.15,5.43-15.71,4.18-10.25-2.31-10.92-11.8-10.01-20.38.83-7.86,5.97-12.19,13.73-12.16,10.56.06,13.09,10.09,12.85,19.05,0,.3-.16.45-.46.45h-17.42,0Z"/>
  <rect class="st0" x="604.99" y="260.04" width="7.4" height="32.1" rx=".42" ry=".42"/>
  <path class="st1" d="M456.72,273.67c-.22,0-.41-.18-.41-.41v-.23c.01-3.7,2.79-6.7,6.22-6.69h.38c3.42.01,6.19,3.01,6.18,6.71v.23c0,.23-.18.41-.41.41l-11.96-.02Z"/>
  <path class="st1" d="M588.88,280.54c0,2.89-2.35,5.23-5.24,5.22h-.66c-2.89-.01-5.22-2.35-5.22-5.24l.02-8.86c0-2.89,2.35-5.23,5.24-5.22h.66c2.89.01,5.22,2.35,5.22,5.24l-.02,8.86Z"/>
  <path class="st1" d="M627.38,273.67c-.14,0-.25-.11-.25-.25v-.24c0-3.76,2.74-6.81,6.11-6.81h.6c3.37,0,6.11,3.05,6.11,6.81v.24c0,.14-.11.25-.25.25h-12.32,0Z"/>
  <rect class="st1" x="490.61" y="266.81" width="12.12" height="18.58" rx="5.66" ry="5.66"/>
  <rect class="st1" x="543.3" y="266.81" width="12.12" height="18.6" rx="5.65" ry="5.65"/>
  <path class="st0" d="M798.71,283.47c-.39,5.13-2.59,10.37-5.19,17.82-.43-1.68-.26-4.1.53-7.27.91-3.67,2.01-7.24,3.32-10.73.19-.5.88-.57,1.16-.11l.18.29h0Z"/>
  <path class="st0" d="M832.89,333.85c1.37,3.61,1.92,9.04-2.26,10.76-3.94,1.63-7.46,2.52-11.26.8-12-5.43-18.15-8.21-18.45-8.35-4.58-2.14-8.37-3.09-12.72-4.5-2.02-.65-4.55-1.82-6.33-3.33-2.23-1.88-5.42-4.16-9.56-6.83-2.53-1.63-4.05-4.1-4.57-7.4-.82-5.23-1.03-9.86-.62-13.88.23-2.23.76-4.58,1.61-7.04-.69,5.52-.02,10.19,2,14,.77,1.46,2.05,2.8,3.83,4.02,1.73,1.18,4.2,2.63,6.21,4.27,3.4,2.77,6.22,4.51,8.45,5.2,4.94,1.52,8.76,2.53,13.46,4.72,8.26,3.86,14.61,6.69,19.05,8.5,3.91,1.59,7.28-.41,11.16-.94Z"/>
  <path class="st0" d="M827.1,305.7c.11,2.83-.41,5.79-1.56,8.88-1.16-1.01-1.65-2.04-1.46-3.11.38-2.13,1.21-4.41,2.49-6.85.17-.33.28-.31.35.06l.18,1.02h0Z"/>
  <path class="st0" d="M662.2,357.19c0,.84.68,1.53,1.52,1.53h2.34c.39,0,.59.21.59.63v5.9c0,.44-.22.66-.66.67-3.2.03-5.09-.05-5.68-.26-3.58-1.26-5.39-3.45-5.43-6.56-.15-13.56-.19-26.15-.13-37.76,0-.3.15-.45.46-.45h6.55c.24,0,.44.19.44.43v35.87h0Z"/>
  <path class="st0" d="M680.28,327.8c0,.35-.29.63-.63.63h-6.3c-.35.02-.63-.27-.63-.62v-6.3c-.02-.35.27-.63.62-.63h6.3c.35-.02.63.27.63.62v6.3h.01Z"/>
  <path class="st0" d="M644.27,333.77h4.36c.21,0,.31.11.31.32v5.58c0,.25-.12.38-.37.38h-4.95c-.37,0-.55.18-.55.55v24.66c0,.39-.19.58-.58.58h-6.22c-.39,0-.58-.19-.58-.58v-24.65c0-.36-.18-.54-.54-.54h-2.16c-.53,0-.79-.26-.79-.78v-4.8c0-.49.25-.74.74-.74h2.28c.31,0,.47-.16.46-.47-.13-10.67,1.54-12.65,12.49-12.34.53.01.8.29.8.82v5.18c0,.57-.28.85-.84.85h-3.4c-.89,0-1.62.72-1.62,1.61v3.22c0,.77.39,1.15,1.16,1.15Z"/>
  <path class="st0" d="M697.63,333.75h2.91c.67,0,1.01.34,1.01,1.01v4.58c0,.63-.31.94-.94.94h-2.93c-.4,0-.6.2-.6.61v16.38c0,.82.66,1.48,1.48,1.48h2.22c.51,0,.76.25.76.75v5.83c0,.38-.3.68-.68.68-5.82,0-10.84-.37-10.99-7.02-.15-6.67-.19-12.72-.14-18.14,0-.36-.18-.54-.55-.54h-2.1c-.38,0-.69-.31-.69-.69v-5.29c0-.38.19-.57.56-.57h2.27c.32,0,.48-.16.48-.47v-8.33c0-.32.26-.58.58-.58h6.21c.39,0,.59.2.59.6v8.22c0,.37.18.55.55.55h0Z"/>
  <path class="st0" d="M303.44,362.98c-3.95-4.49-7.4-8.01-12.31-10.3-10.02-4.66-20.67-7.93-31.15-8.64-7.61-.52-17.51-.74-29.69-.67-11.69.07-21.27,4.63-28.74,13.7-1.12-6.27.89-11.52,6.04-15.73,3.5-2.87,6.67-4.85,9.52-5.95,5.78-2.23,11.83-3.26,18.16-3.09,10.68.29,17.89.49,21.62.6,10.42.3,20.6,2.53,30.54,6.68,5.42,2.26,8.56,3.65,12.81,7.77,3.68,3.57,6.12,6.02,7.33,7.35,1.1,1.2,1.27,2.82.28,4.25-1.15,1.66-2.62,3-4.41,4.03h0Z"/>
  <path class="st0" d="M458.05,352.79c-1.95,0-2.46.85-1.51,2.56l.42.75c1.02,1.83,2.56,2.92,4.64,3.25,3.06.5,5.9-.25,8.53-2.24.12-.09.26-.08.4.05l4.54,4.12c.15.13.15.25-.01.38-4.91,4.04-10.15,5.43-15.71,4.17-10.25-2.32-10.91-11.8-9.99-20.38.83-7.86,5.97-12.19,13.73-12.15,10.56.06,13.08,10.09,12.84,19.05,0,.3-.16.45-.46.45h-17.42Z"/>
  <path class="st0" d="M489.91,343.31c-.03,1.04.71,1.94,1.73,2.11.7.11,4.14.58,10.31,1.39,3.11.41,6.15,2.38,6.93,5.66,1.55,6.51-1.18,11.93-7.93,13.24-7.04,1.38-13.39.18-19.05-3.59-.49-.32-.55-.71-.18-1.16l3.49-4.33c.37-.46.8-.53,1.29-.2,4.1,2.77,8.86,3.77,13.62,2.46,3.35-.92,3.2-5.3-.42-5.71-3.87-.43-7.03-.86-9.48-1.27-5.36-.89-7.71-4.22-7.05-9.99.62-5.43,4.65-7.84,9.79-8.46,5.69-.68,11.05.58,16.08,3.79.14.09.16.2.05.33l-4.12,5.1c-.13.17-.29.2-.48.08-3.39-2.17-7.1-2.99-11.13-2.47-2.25.29-3.4,1.3-3.45,3.02h0Z"/>
  <path class="st0" d="M532.7,349.79c0-2.06.09-3.83.29-5.31,1.27-9.81,10.42-12.68,18.98-10.5,2.7.69,4.93,2.08,6.69,4.16.13.16.12.4-.04.55l-4.67,4.24c-.13.12-.32.12-.45,0-3.05-2.63-6.33-3.23-9.86-1.78-3.48,1.42-3.55,5.31-3.54,8.63,0,3.32.09,7.2,3.57,8.62,3.53,1.43,6.81.82,9.85-1.82.13-.12.33-.12.45,0l4.69,4.23c.15.14.17.39.04.55-1.75,2.08-3.98,3.47-6.68,4.17-8.55,2.22-17.71-.62-19.02-10.43-.19-1.48-.29-3.25-.3-5.31Z"/>
  <rect class="st0" x="564.17" y="333.35" width="26.98" height="32.84" rx="12.19" ry="12.19"/>
  <path class="st0" d="M607.4,337.24c2.27-2.85,4.91-4.17,7.91-3.96,6.47.44,9.94,4.02,10.41,10.74.16,2.33.21,9.41.14,21.23,0,.4-.2.6-.6.6h-6.26c-.39,0-.59-.19-.59-.58,0-5.63,0-11.47-.02-17.52,0-2.48-.03-4.75-1.87-6.12-3.83-2.85-9.65-1.11-9.67,4.39,0,5.94,0,12.36.04,19.25,0,.41-.21.62-.62.62h-6.23c-.37,0-.55-.19-.55-.56v-30.73c0-.55.27-.83.82-.83h5.68c.57,0,.86.28.86.85v2.43c0,.59.18.65.55.19h0Z"/>
  <path class="st0" d="M715.46,343.31c-.03,1.04.71,1.94,1.73,2.11.7.11,4.14.58,10.31,1.39,3.11.41,6.15,2.38,6.92,5.66,1.55,6.51-1.18,11.93-7.92,13.24-7.04,1.37-13.39.18-19.05-3.6-.49-.32-.55-.7-.18-1.16l3.49-4.32c.37-.46.8-.53,1.29-.2,4.1,2.77,8.86,3.77,13.62,2.46,3.35-.92,3.2-5.3-.42-5.71-3.87-.44-7.03-.86-9.48-1.27-5.36-.9-7.71-4.23-7.05-9.99.62-5.43,4.65-7.84,9.79-8.46,5.69-.68,11.05.59,16.08,3.79.14.09.15.2.05.33l-4.12,5.1c-.14.17-.3.2-.48.08-3.4-2.17-7.1-2.99-11.13-2.47-2.25.29-3.4,1.3-3.45,3.02h0Z"/>
  <rect class="st0" x="672.77" y="333.7" width="7.44" height="32.16" rx=".54" ry=".54"/>
  <rect class="st1" x="418.7" y="344.19" width="19.3" height="11.14" rx="5.24" ry="5.24" transform="translate(75.61 775.66) rotate(-89.6)"/>
  <path class="st1" d="M456.47,347.33c-.18,0-.33-.15-.33-.33v-.3c-.01-3.67,2.78-6.66,6.23-6.67h.3c3.45-.01,6.26,2.95,6.27,6.63v.3c0,.18-.15.33-.33.33l-12.14.04Z"/>
  <path class="st1" d="M583.73,353.4c0,3.12-2.51,5.67-5.64,5.68h-.8c-3.12.01-5.67-2.51-5.68-5.64l-.03-7.3c0-3.12,2.51-5.67,5.64-5.68h.8c3.12-.01,5.67,2.51,5.68,5.64l.03,7.3Z"/>
  <path class="st0" d="M181.38,384.65c-1.39-4.61-3.93-12.46-8.2-14.52-6.65-3.21-18.7,4.24-23.81,8.49-10.99,9.13-22.37,21.68-34.79,31.54-.57-.97-.89-2.36-.96-4.15-.27-7.23,5.24-8.6,9.38-12.52,11.03-10.45,18.1-17.13,21.2-20.05,7.17-6.75,14.12-12.16,23.32-14.58,9.01-2.36,11.85,5,14.26,11.68,1.71,4.73,1.58,9.43-.4,14.11h0Z"/>
  <path class="st0" d="M330.17,370.23c1.06,4.91.05,9.22-3.02,12.92-4.77,5.73-10.74,11.01-17.91,15.84-.34-.07-.55-.23-.62-.5-1.16-4.44-1.43-7.89,2.47-10.64,7.14-5.04,13.5-10.91,19.08-17.62Z"/>
  <path class="st0" d="M19.05,374.39c6.79,4.55,13.55,9.04,20.28,13.49,1.77,1.17,3.01,2,4.72,2.7,2.88,1.17,13.53,5.29,31.96,12.34,2.25.87,6.86,2.12,13.81,3.76,7.63,1.81,9.02,7.52,11.57,14.08.17.43.66.63,1.08.45l9.83-4.14,1.26,8.25c.07.44-.12.88-.49,1.12-3.64,2.39-7.68,4.32-12.11,5.79-.41.14-.86-.08-1.01-.49-1.54-4.26-2.26-7.53-4.52-9.86-2.38-2.45-4.67-3.91-6.88-4.37-7.13-1.51-11.67-2.66-13.61-3.43-6.37-2.53-15.59-6.16-27.68-10.88-3.12-1.22-6.67-2.51-9.85-4.64-7.67-5.14-15.32-10.31-22.95-15.5-.27-.18-.32-.41-.16-.69l4.75-7.98h0Z"/>
  <path class="st0" d="M201.05,386.35c.07,6.32-1.34,12.02-4.21,17.11-2.44,4.31-7.05,8.97-10.7,13.15-1.94,2.23-4.1,3.78-6.45,5.65-2.27-1.09-3.81-2.14-4.64-3.15-1.56-1.89-1.24-3.52.96-4.89,4.77-2.95,9-5.32,12.88-10.12.9-1.11,2.84-3.32,5.81-6.63,2.43-2.7,4.54-6.41,6.35-11.12h0Z"/>
  <path class="st0" d="M762.82,398.96c0,.27-.22.5-.5.5h-6.42c-.27-.02-.5-.24-.5-.51v-6.42c.02-.27.24-.5.51-.5h6.42c.27.02.5.24.5.51v6.42h-.01Z"/>
  <path class="st0" d="M525.86,404.38c0,.36.18.55.55.55h2.91c.68,0,1.02.34,1.02,1.01v4.59c-.01.63-.32.94-.95.94h-2.94c-.4,0-.6.2-.6.61v16.41c0,.82.65,1.48,1.47,1.48h2.22c.51,0,.77.25.76.75v5.84c0,.38-.31.69-.68.69-5.83-.01-10.86-.38-11-7.05-.15-6.68-.19-12.74-.13-18.17,0-.36-.18-.54-.55-.54h-2.1c-.39,0-.69-.31-.69-.69v-5.3c0-.38.19-.57.56-.57h2.28c.32,0,.48-.16.48-.47v-8.34c0-.32.26-.58.59-.58h6.22c.39,0,.59.2.59.6v8.24h-.01Z"/>
  <path class="st0" d="M373.03,461.96c.69.07,1.24.29,1.67.66.26.23.33.51.22.84-2.37,6.94-5.32,13.47-8.86,19.59-.34.58-1.13.67-1.6.19-5.73-5.97-10.75-9.91-18.27-14.46-13.63-8.25-27.56-16.3-39.04-26.64-6.49-5.83-12.08-12.74-16.77-20.71-4.73-8.05-7.55-15.99-4.46-25.14.51,1.63.99,3.22,1.44,4.76.53,1.82,1.11,3.36,1.76,4.63,6.1,12.03,14.51,22.23,25.23,30.58,10.48,8.16,22.49,15.26,33.81,21.97,7,4.15,12.3,8.51,17.94,14.31.27.28.74.24.96-.08,1.96-2.91,3.6-6.05,4.92-9.41.19-.51.63-.8,1.05-1.09h0Z"/>
  <path class="st0" d="M423.08,420.97c0,3.33.08,7.22,3.57,8.64,3.53,1.43,6.82.83,9.87-1.82.13-.11.32-.11.45,0l4.69,4.24c.16.15.17.39.04.55-1.75,2.09-3.98,3.48-6.69,4.18-8.57,2.21-17.74-.64-19.04-10.47-.2-1.48-.3-3.25-.3-5.31s.09-3.84.29-5.32c1.28-9.83,10.44-12.7,19.01-10.51,2.71.7,4.95,2.09,6.7,4.17.14.16.12.4-.03.55l-4.69,4.25c-.12.11-.31.11-.45,0-3.05-2.64-6.34-3.24-9.87-1.79-3.49,1.42-3.56,5.31-3.55,8.64h0Z"/>
  <rect class="st0" x="446.77" y="404.53" width="26.94" height="32.88" rx="12.18" ry="12.18"/>
  <path class="st0" d="M490.07,408.22c0,.59.18.65.55.19,2.27-2.83,4.9-4.14,7.9-3.93,6.45.45,9.91,4.03,10.36,10.74.16,2.33.19,9.39.09,21.19,0,.4-.2.6-.6.6l-6.24-.02c-.4,0-.59-.19-.59-.58,0-5.62.02-11.45.02-17.48,0-2.48-.02-4.74-1.85-6.11-3.82-2.86-9.63-1.13-9.66,4.35-.03,5.93-.03,12.34,0,19.21,0,.42-.21.62-.62.62h-6.21c-.37-.01-.55-.2-.55-.57l.07-30.67c0-.55.27-.83.82-.83l5.67.02c.57,0,.85.28.85.85v2.42h-.01Z"/>
  <path class="st0" d="M546.56,423.97c-1.95-.01-2.46.84-1.52,2.55l.42.75c1.01,1.84,2.55,2.93,4.63,3.27,3.05.51,5.9-.23,8.53-2.21.13-.1.27-.08.4.05l4.54,4.14c.14.12.14.25-.01.38-4.93,4.01-10.18,5.39-15.73,4.11-10.24-2.35-10.87-11.84-9.93-20.42.87-7.86,6.02-12.16,13.78-12.1,10.56.1,13.05,10.14,12.77,19.1,0,.3-.16.45-.46.45l-17.42-.07h0Z"/>
  <path class="st0" d="M580.06,408.45c0,.3.39.4.55.15,4.07-6.39,13.29-5.06,16.66,1.25.25.46.51.47.79.03,6.2-9.78,19.19-5.67,19.57,5.69.14,4.16.17,11.15.1,20.97,0,.32-.16.48-.49.48h-6.22c-.33,0-.49-.17-.49-.5,0-6.43,0-12.76-.03-18.99-.03-4.85-5.05-7.73-9.13-5.15-2.75,1.73-2.34,4.29-2.35,7.97-.02,4.99-.02,10.39-.01,16.18,0,.33-.16.49-.49.49h-6.52c-.31,0-.46-.15-.46-.46-.02-11.33-.03-17.68-.02-19.04.03-5.03-4.74-7.41-8.85-5.35-1.81.91-2.71,2.94-2.7,6.08.05,9.3.06,15.4.05,18.31,0,.31-.16.47-.47.47h-6.32c-.35,0-.53-.18-.53-.53v-30.77c0-.51.26-.77.77-.77h5.84c.5,0,.75.25.75.76v2.73h0Z"/>
  <path class="st0" d="M634.55,433.84c-.36-.47-.54-.41-.54.18v15.73c0,.17-.09.26-.27.26h-6.75c-.19,0-.28-.09-.28-.27v-44.02c0-.5.25-.75.76-.75h5.82c.5,0,.75.25.75.75v2.46c0,.32.41.45.6.19,2.17-3.08,5.18-4.33,9.04-3.75,6.14.92,8.41,5.62,8.89,11.31.35,4.07.3,7.9-.14,11.5-.83,6.73-5.57,10.81-12.19,9.96-2.19-.28-4.08-1.46-5.69-3.55h0Z"/>
  <rect class="st0" x="659.77" y="404.52" width="26.94" height="32.9" rx="12.19" ry="12.19"/>
  <path class="st0" d="M702.33,408.19c0,.56.18.62.54.2,3.75-4.51,8.35-5.15,13.82-1.94.35.21.43.68.18.99l-4.17,5.2c-.18.22-.49.28-.73.14-3.11-1.81-6.82-1.69-8.66,1.17-.65,1.02-.98,3-.98,5.93-.01,5.83.01,11.35.05,16.56,0,.37-.19.56-.57.56l-6.61.02c-.27,0-.48-.21-.49-.48l-.07-30.79c0-.55.26-.82.8-.82l6.13-.02c.41,0,.75.34.75.75v2.53h0Z"/>
  <path class="st0" d="M739.57,435.02c0-.18-.21-.28-.35-.17-2.81,2.11-6.19,2.96-10.14,2.55-6.09-.62-9.08-3.99-8.99-10.12.15-10.21,10.64-9.65,17.87-9.24,1.66.09,2.2-.64,1.61-2.19l-.6-1.61c-.62-1.65-1.8-2.64-3.54-2.95-3.05-.54-5.87,0-8.45,1.62-.25.16-.58.15-.81-.04l-4.02-3.25c-.29-.23-.33-.5-.1-.79,1.56-2.07,4.37-3.44,8.43-4.09,7.88-1.28,15.75,2.13,15.78,11.01.03,7.17.04,14.08.03,20.73,0,.36-.18.54-.54.54h-5.72c-.31,0-.46-.15-.46-.46v-1.54h0Z"/>
  <path class="st0" d="M779.07,408.22c0,.59.19.65.55.19,2.28-2.83,4.92-4.14,7.91-3.93,6.45.46,9.9,4.05,10.36,10.76.15,2.32.17,9.39.07,21.18,0,.4-.2.6-.6.6l-6.25-.02c-.39,0-.59-.19-.58-.58,0-5.62.02-11.45.03-17.48.01-2.48-.02-4.75-1.85-6.12-3.81-2.85-9.63-1.14-9.66,4.35-.03,5.93-.04,12.34-.02,19.22,0,.41-.21.61-.62.61l-6.22-.02c-.37,0-.55-.18-.55-.56l.1-30.67c0-.55.27-.82.82-.82l5.67.02c.57,0,.85.28.85.85v2.42h-.01Z"/>
  <path class="st0" d="M812.59,414.51c-.03,1.04.71,1.95,1.74,2.11.7.12,4.14.58,10.32,1.38,3.11.41,6.16,2.38,6.94,5.66,1.56,6.52-1.17,11.95-7.92,13.26-7.05,1.39-13.41.2-19.08-3.57-.48-.32-.54-.7-.18-1.16l3.49-4.34c.37-.46.8-.53,1.29-.2,4.11,2.77,8.88,3.77,13.64,2.45,3.35-.93,3.2-5.31-.43-5.72-3.87-.43-7.03-.85-9.49-1.26-5.37-.89-7.72-4.22-7.07-9.99.62-5.44,4.65-7.86,9.79-8.48,5.7-.69,11.07.57,16.11,3.77.14.09.15.2.05.33l-4.12,5.11c-.14.18-.3.21-.48.09-3.4-2.17-7.12-2.99-11.15-2.46-2.25.29-3.4,1.3-3.45,3.02h0Z"/>
  <rect class="st0" x="755.53" y="404.98" width="7.2" height="32.04" rx=".36" ry=".36"/>
  <path class="st1" d="M544.94,418.53c-.18,0-.33-.15-.33-.33v-.19c0-3.73,2.66-6.76,5.94-6.76h1.12c3.28,0,5.94,3.03,5.94,6.76v.19c0,.18-.15.33-.33.33h-12.34,0Z"/>
  <path class="st1" d="M645.25,425.39c.02,2.88-2.29,5.24-5.17,5.27h-.78c-2.88.03-5.24-2.29-5.27-5.17l-.08-8.96c-.02-2.88,2.29-5.24,5.17-5.27h.78c2.88-.03,5.24,2.29,5.27,5.17l.08,8.96Z"/>
  <rect class="st1" x="454.08" y="411.55" width="12.34" height="18.8" rx="5.77" ry="5.77"/>
  <rect class="st1" x="667.06" y="411.56" width="12.38" height="18.78" rx="5.77" ry="5.77"/>
  <path class="st1" d="M739.53,424.2v4.57c0,.71-.42,1.36-1.07,1.67-2.62,1.21-9.3,2.25-11.16-1.16-1.47-2.7.28-5.22,3.27-5.44,2.86-.2,5.72-.22,8.57-.06.22.02.39.2.39.42h0Z"/>
  <path class="st0" d="M215.06,454.23c1.44,5.06-.16,8.73-2.89,13.34-2.54,4.29-7.38,5.13-12.32,4.88-7.65-.38-15.29-3.84-21.62-8.14-8.04-5.46-16.09-10.77-21.84-18.19-4.8-6.18-6.13-13.18-3.99-21.01.81,1.35,1.49,2.75,2.06,4.18,3.41,8.54,10.4,13.57,18.38,19.41,5.68,4.15,11.69,8.34,18.31,10.68,6.47,2.28,12.08,2.82,16.83,1.63,2.85-.71,5.21-2.97,7.08-6.78h0Z"/>
  <path class="st0" d="M223.1,493.68h.2c1.65,1.21,3.49,2.66,5.52,4.34.21.17.21.36.02.55l-1.81,1.81c-.17.17-.43.18-.62.04-.69-.53-1.51-1.18-2.47-1.97-.31-.26-.59-.39-.84-.39s-.52.13-.84.39c-.96.79-1.78,1.45-2.46,1.97-.19.15-.46.13-.62-.04l-1.81-1.8c-.2-.2-.19-.38.02-.55,2.02-1.69,3.86-3.13,5.51-4.35h.2,0Z"/>
  <path class="st0" d="M108.86,506.69c-.13.16-.36.17-.51.04l-2.36-2.01c-.15-.13-.17-.35-.04-.51l4.91-5.75c.13-.16.36-.17.51-.04l2.36,2.01c.15.13.17.35.04.51l-4.91,5.75Z"/>
  <path class="st0" d="M511.98,515.68c-.01,3.32-.44,8.77,4.24,9.26,2.65.27,4.52-1.05,5.59-3.98.05-.13.18-.22.33-.22h4.07c.25,0,.33.12.26.36-1.85,5.94-5.44,8.64-10.76,8.1-2.29-.23-4.1-1.04-5.45-2.43-2.96-3.05-2.72-6.34-2.71-11.1.02-4.77-.19-8.07,2.79-11.1,1.35-1.37,3.17-2.17,5.46-2.39,5.32-.5,8.89,2.22,10.7,8.17.08.24-.01.36-.26.36l-4.07-.03c-.14,0-.27-.08-.33-.22-1.05-2.93-2.9-4.27-5.56-4.01-4.68.46-4.29,5.91-4.3,9.23h0Z"/>
  <rect class="st0" x="140.55" y="502.28" width="4.44" height="4.44" rx=".38" ry=".38" transform="translate(-363.2 641.98) rotate(-89.4)"/>
  <rect class="st0" x="221" y="502.27" width="4.46" height="26.7" rx=".44" ry=".44"/>
  <path class="st0" d="M236.91,524.6c.28.11.63.15,1.05.13.44-.02.8.33.8.77v2.61c0,.47-.23.74-.7.8-5.32.71-6.34-1.98-6.33-6.68,0-6.7,0-13.23,0-19.59,0-.19.15-.34.34-.34h3.46c.31,0,.47.16.47.47v20.51c0,.64.3,1.08.91,1.32h0Z"/>
  <path class="st0" d="M289.72,527.54c-3.96,3.73-9.68,1.36-10.27-3.93-.39-3.42-.33-6.5.16-9.25.85-4.79,6.72-6.04,10.17-2.81.19.18.5.04.5-.22v-8.56c0-.33.17-.49.5-.49h3.48c.31,0,.46.15.46.46v25.78c0,.31-.16.47-.47.47h-3.21c-.39,0-.63-.19-.73-.56-.05-.2-.07-.41-.04-.62.07-.59-.12-.68-.55-.27h0Z"/>
  <path class="st0" d="M342.98,529.02h-3.49c-.27,0-.48-.21-.48-.48v-25.79c0-.27.21-.48.48-.48h16.31c.27,0,.48.21.48.48v3.21c0,.27-.21.48-.48.48h-11.86c-.27,0-.48.21-.48.48v6.6c0,.27.21.48.48.48h9.86c.27,0,.48.21.48.48v3.04c0,.27-.21.48-.48.48h-9.86c-.27,0-.48.21-.48.48v10.06c0,.27-.21.48-.48.48h0Z"/>
  <path class="st0" d="M646,521.14c.19,0,.33-.16.43-.49,1.8-6.14,3.67-12.2,5.6-18.19.04-.13.13-.19.26-.19h4.19c.15,0,.2.07.15.21l-8.55,25.86c-.11.34-.35.53-.7.57-.43.05-.89.08-1.38.08s-.95-.03-1.37-.08c-.36-.04-.59-.23-.71-.57l-8.54-25.86c-.04-.14.01-.21.15-.21h4.19c.14,0,.22.06.26.19,1.93,5.98,3.8,12.05,5.6,18.19.09.33.23.49.42.49Z"/>
  <path class="st0" d="M683.91,524.62c.28.11.63.15,1.06.13.43-.01.8.34.8.77v2.62c0,.48-.24.74-.7.8-5.34.72-6.36-1.98-6.35-6.69.01-6.72.01-13.27,0-19.65,0-.19.16-.34.34-.34h3.47c.32,0,.48.16.48.47v20.57c0,.64.3,1.08.91,1.32h0Z"/>
  <path class="st0" d="M710.28,527.8c.07-.59-.11-.68-.55-.27-3.95,3.73-9.67,1.36-10.27-3.92-.38-3.42-.33-6.51.16-9.25.85-4.79,6.71-6.04,10.16-2.82.19.18.5.05.5-.22v-8.56c0-.32.16-.49.5-.49h3.48c.3,0,.46.16.46.46v25.78c.01.31-.14.47-.46.47h-3.21c-.38,0-.63-.19-.73-.56-.05-.2-.06-.41-.04-.62h0Z"/>
  <path class="st0" d="M767.46,525.24v3.26c0,.28-.22.5-.5.5h-16.45c-.28,0-.5-.22-.5-.5v-25.73c0-.28.22-.5.5-.5h3.46c.28,0,.5.22.5.5v21.47c0,.28.22.5.5.5h11.99c.28,0,.5.22.5.5Z"/>
  <rect class="st0" x="791.54" y="502.27" width="4.48" height="4.48" rx=".43" ry=".43" transform="translate(282.36 1293.86) rotate(-89.5)"/>
  <path class="st0" d="M491.12,509.99h1.55c.43,0,.65.22.65.67v2.3c0,.52-.26.78-.78.78h-1.52c-.37,0-.55.18-.55.55v9.6c0,.31.17.59.44.74.46.25,1.08.39,1.85.41.36.01.54.2.54.56v2.69c0,.37-.19.59-.56.65-5.2.88-6.63-1.58-6.49-6.4.02-.78.03-3.51.02-8.2,0-.34-.28-.62-.62-.62h-.76c-.45,0-.68-.23-.68-.68v-2.24c0-.54.27-.81.81-.81h.59c.44,0,.66-.22.66-.67v-4.11c0-.39.32-.71.72-.71h2.67c.45,0,.82.37.82.82v4.02c0,.43.21.65.64.65h0Z"/>
  <path class="st0" d="M576.47,509.36c0,.43.21.64.64.64h1.55c.43,0,.64.22.64.67v2.29c.01.52-.25.78-.77.78h-1.52c-.36,0-.55.18-.55.55v9.57c0,.31.18.59.45.74.46.25,1.07.39,1.84.41.36.01.54.2.54.55v2.69c0,.37-.18.58-.55.64-5.19.89-6.62-1.57-6.48-6.37.02-.78.03-3.5.02-8.18,0-.34-.28-.62-.62-.62h-.76c-.45.01-.68-.22-.68-.67v-2.24c0-.53.27-.8.81-.8h.59c.44,0,.65-.23.65-.67v-4.1c0-.39.32-.71.72-.71h2.66c.45,0,.82.37.82.82v4.01h0Z"/>
  <path class="st0" d="M37.96,521.24c-.53,0-.89.54-.68,1.03,1.37,3.23,4.98,3.99,7.89,1.97.36-.25.85-.22,1.17.07l1.72,1.57c.41.38.4.75-.03,1.1-4.77,3.85-13.25,3.13-14.54-3.94-.4-2.18-.37-4.64.1-7.4.82-4.89,6.53-7.25,10.96-5.23,3.83,1.75,4.72,6.37,4.44,10.39-.03.33-.21.5-.54.5l-10.49-.06h0Z"/>
  <path class="st0" d="M58.62,511.69c4.88-4.49,10.19-1.18,10.74,4.8.16,1.68.19,5.7.08,12.05,0,.31-.15.46-.46.46h-3.46c-.26,0-.47-.21-.47-.47l-.09-11.25c-.02-2.2-1.14-3.3-3.37-3.31h-.14c-2.23.01-3.36,1.14-3.39,3.37l-.11,11.2c0,.31-.16.46-.47.46h-3.25c-.35,0-.53-.18-.53-.53v-17.97c0-.29.23-.52.52-.52h3.05c.32,0,.58.23.63.55l.14.95c.07.43.26.5.58.21h0Z"/>
  <path class="st0" d="M89.31,511.79c0,.22.27.32.41.16,2.31-2.61,4.99-2.96,8.04-1.05.29.18.33.4.11.67l-2.19,2.72c-.18.22-.4.27-.66.16-3.09-1.33-5.67-.23-5.71,3.3-.05,3.76-.05,7.34,0,10.75,0,.35-.17.52-.51.52h-3.53c-.35,0-.53-.18-.53-.53v-17.99c0-.35.17-.52.52-.52h3.37c.46,0,.69.23.69.7v1.11h-.01Z"/>
  <path class="st0" d="M104.96,521.26c-.53,0-.89.55-.68,1.04,1.39,3.22,5.01,3.96,7.92,1.92.36-.25.84-.22,1.17.07l1.73,1.56c.41.38.4.75-.03,1.1-4.75,3.88-13.25,3.21-14.58-3.86-.41-2.18-.39-4.65.06-7.41.8-4.9,6.5-7.3,10.95-5.3,3.84,1.73,4.76,6.35,4.5,10.38-.03.33-.21.5-.54.5,0,0-10.5,0-10.5,0Z"/>
  <path class="st0" d="M131.27,511.26v-.53c0-.49.25-.73.74-.73h3.18c.37,0,.55.18.55.55,0,10.03,0,16.31-.08,18.82-.21,7.41-8.13,8.76-13.61,5.92-1.27-.67-1.43-1.53-.46-2.6l.35-.39c.87-.97,1.84-1.07,2.9-.3,1.02.73,2.28.92,3.77.56,2.46-.6,2.78-2.8,2.78-5.03,0-.4-.19-.45-.57-.16-.61.47-1.35,1.53-2.38,1.73-5.22,1.05-8.06-2.17-8.19-7.09-.08-3.12-.53-7.88,1.86-10.47,2.33-2.52,6.14-2.4,8.64-.06.35.33.52.25.52-.22h0Z"/>
  <path class="st0" d="M165.21,522.03c-.02,4.01-3.29,7.23-7.29,7.21h-1.48c-4.01-.02-7.23-3.29-7.21-7.3l.03-5.02c.02-4.01,3.29-7.23,7.29-7.21h1.48c4.01.02,7.23,3.29,7.21,7.3l-.03,5.02h0Z"/>
  <path class="st0" d="M175.06,511.5c.06.43.26.5.58.21,4.87-4.49,10.17-1.18,10.72,4.79.16,1.68.19,5.69.08,12.03,0,.31-.16.46-.46.46h-3.46c-.26,0-.47-.21-.47-.47l-.08-11.23c-.02-2.2-1.15-3.3-3.37-3.31h-.14c-2.23.02-3.36,1.14-3.38,3.37l-.12,11.18c0,.31-.15.46-.47.46h-3.24c-.35,0-.53-.18-.53-.53v-17.94c0-.29.24-.52.52-.52h3.05c.31,0,.58.23.63.55l.14.95h0Z"/>
  <path class="st0" d="M197.35,517.07c3.67.94,9.33-.36,9.41,5.71.12,8.5-11.12,7.15-15.87,4.33-.55-.33-.63-.74-.23-1.25l1.6-1.97c.35-.45.77-.52,1.25-.22,2.08,1.29,6.56,2.49,8.71.71.73-.61.79-1.34.19-2.21-.25-.36-.64-.59-1.07-.64-4.13-.47-10.31-.04-10.09-6.02.3-7.85,10.84-6.31,15.23-3.52.19.12.23.38.08.55l-2.16,2.38c-.18.2-.4.25-.65.15-3.38-1.36-5.56-1.8-6.53-1.32-2.93,1.43-2.88,2.54.13,3.32h0Z"/>
  <path class="st0" d="M245.98,521.26c-.53-.01-.89.54-.68,1.03,1.38,3.22,4.99,3.96,7.9,1.93.36-.25.84-.22,1.17.07l1.72,1.56c.42.38.41.74-.03,1.09-4.74,3.87-13.23,3.2-14.55-3.86-.41-2.18-.39-4.64.07-7.4.8-4.89,6.49-7.28,10.93-5.28,3.84,1.73,4.75,6.34,4.49,10.37-.03.33-.21.5-.54.5h-10.48Z"/>
  <path class="st0" d="M304.95,521.26c-.53,0-.88.55-.68,1.04,1.39,3.22,5,3.96,7.91,1.93.36-.25.85-.23,1.17.07l1.73,1.56c.41.38.4.74-.03,1.1-4.75,3.87-13.24,3.19-14.56-3.87-.41-2.18-.39-4.65.07-7.41.8-4.89,6.5-7.28,10.94-5.28,3.83,1.73,4.75,6.35,4.48,10.37-.02.34-.2.5-.54.5h-10.49Z"/>
  <path class="st0" d="M364.31,511.8c0,.22.26.32.41.16,2.31-2.61,4.99-2.96,8.03-1.05.29.18.33.41.11.67l-2.19,2.72c-.18.22-.4.27-.66.16-3.09-1.33-5.66-.23-5.7,3.29-.05,3.76-.05,7.33-.02,10.74,0,.34-.16.52-.5.52h-3.53c-.35-.01-.53-.18-.53-.53v-17.97c0-.34.18-.52.53-.52h3.36c.46,0,.69.24.69.7v1.11h0Z"/>
  <path class="st0" d="M385.84,517.65c.37-.05.54-.26.52-.62-.24-4.62-4.52-3.58-7.47-2.44-.27.11-.51.07-.74-.11l-1.94-1.55c-.41-.34-.41-.67.01-1,3.54-2.79,10.76-3.53,13.35,1.14.54.97.83,2.65.89,5.03.07,3.22.07,6.67,0,10.37,0,.33-.18.5-.5.53-1.43.13-2.75-.05-3.96-.56-.3-.12-.61-.13-.91-.01-4.17,1.73-10.24.99-10.24-4.79,0-7.23,6.28-5.41,10.99-5.99h0Z"/>
  <path class="st0" d="M400.04,511.5c.07.43.26.5.58.21,4.88-4.49,10.19-1.18,10.74,4.8.16,1.68.19,5.7.08,12.05,0,.31-.15.46-.46.46h-3.46c-.26,0-.47-.21-.47-.47l-.09-11.25c-.02-2.2-1.14-3.31-3.37-3.31-.09-.01-.13-.01-.14,0-2.23.01-3.36,1.13-3.39,3.37l-.11,11.2c0,.31-.16.46-.47.46h-3.25c-.35,0-.53-.18-.53-.53v-17.97c0-.29.23-.52.52-.52h3.05c.32,0,.58.23.63.55l.14.95h0Z"/>
  <path class="st0" d="M420.44,519.49c-.01,3.96,1.87,6.73,6.31,5.17.59-.21,1.08-.48,1.48-.82.3-.25.75-.24,1.03.04l2.01,2.01c.3.31.27.81-.07,1.08-4.85,3.85-13.67,3.25-14.81-4.18-.08-.51-.11-1.61-.11-3.3s.04-2.8.12-3.3c1.15-7.44,9.97-8.02,14.81-4.16.35.27.38.77.07,1.08l-2.01,2.01c-.29.27-.73.29-1.03.03-.4-.34-.89-.61-1.48-.82-4.44-1.57-6.32,1.19-6.32,5.16h0Z"/>
  <path class="st0" d="M438.96,521.26c-.53,0-.89.54-.68,1.03,1.39,3.22,5,3.97,7.91,1.93.36-.25.84-.22,1.17.07l1.73,1.56c.41.38.4.75-.03,1.1-4.75,3.87-13.24,3.2-14.57-3.87-.41-2.18-.39-4.65.07-7.4.8-4.9,6.5-7.29,10.94-5.29,3.84,1.73,4.75,6.35,4.49,10.38-.03.33-.21.5-.54.5h-10.49Z"/>
  <path class="st0" d="M468.96,521.26c-.53,0-.89.54-.68,1.04,1.39,3.22,5,3.96,7.91,1.92.36-.25.85-.22,1.17.08l1.73,1.56c.41.38.4.74-.03,1.1-4.75,3.87-13.24,3.19-14.56-3.88-.42-2.18-.39-4.64.06-7.4.81-4.9,6.51-7.29,10.95-5.28,3.83,1.73,4.75,6.35,4.48,10.37-.02.34-.2.5-.54.5h-10.49Z"/>
  <path class="st0" d="M534.95,521.24c-.53-.01-.89.54-.68,1.03,1.36,3.22,4.97,3.98,7.89,1.96.35-.24.84-.21,1.16.08l1.72,1.57c.41.38.4.75-.04,1.1-4.76,3.84-13.23,3.12-14.52-3.94-.4-2.18-.36-4.65.11-7.4.82-4.88,6.53-7.24,10.95-5.22,3.82,1.75,4.71,6.37,4.43,10.39-.03.33-.21.49-.54.49l-10.48-.06Z"/>
  <path class="st0" d="M555.06,511.48c.07.43.26.5.58.21,4.88-4.48,10.18-1.18,10.72,4.8.16,1.68.19,5.69.08,12.03,0,.31-.16.46-.46.46h-3.46c-.26,0-.47-.21-.47-.47l-.08-11.24c-.02-2.19-1.14-3.3-3.36-3.3h-.14c-2.24.01-3.36,1.13-3.39,3.36l-.12,11.19c0,.3-.16.46-.47.46h-3.25c-.35-.01-.52-.18-.52-.54v-17.94c.01-.29.24-.52.53-.52h3.04c.32,0,.59.23.63.55l.14.95h0Z"/>
  <path class="st0" d="M588.29,511.82c0,.21.27.32.41.16,2.3-2.61,4.97-2.96,8.01-1.06.3.18.33.4.11.67l-2.17,2.71c-.18.22-.4.27-.66.16-3.09-1.32-5.66-.22-5.69,3.3-.04,3.75-.04,7.32,0,10.72,0,.34-.17.52-.5.52h-3.52c-.36,0-.53-.17-.53-.53l-.03-17.93c0-.35.17-.52.52-.52h3.36c.46,0,.69.23.69.69v1.11h0Z"/>
  <path class="st0" d="M603.96,521.25c-.53,0-.89.55-.68,1.04,1.38,3.22,5,3.96,7.9,1.93.36-.25.85-.22,1.17.07l1.73,1.56c.41.38.4.75-.03,1.1-4.75,3.87-13.24,3.19-14.56-3.88-.4-2.17-.38-4.64.08-7.39.8-4.89,6.5-7.28,10.94-5.28,3.83,1.74,4.74,6.35,4.47,10.37-.02.34-.2.5-.54.5l-10.48-.02h0Z"/>
  <path class="st0" d="M669.36,517.03c-.24-4.62-4.53-3.58-7.48-2.44-.27.11-.51.07-.74-.11l-1.94-1.56c-.41-.34-.41-.67.01-1,3.55-2.79,10.77-3.52,13.36,1.15.54.97.84,2.65.89,5.04.07,3.22.07,6.68-.01,10.38-.01.33-.17.5-.5.53-1.43.13-2.75-.05-3.96-.56-.31-.13-.61-.13-.91-.01-4.18,1.73-10.25.98-10.25-4.81,0-7.23,6.29-5.41,11.01-5.99.37-.05.54-.25.52-.62h0Z"/>
  <path class="st0" d="M723.96,521.25c-.53,0-.89.55-.68,1.04,1.38,3.22,4.99,3.96,7.9,1.93.36-.25.84-.22,1.17.08l1.72,1.56c.41.38.4.74-.03,1.1-4.75,3.86-13.24,3.17-14.55-3.89-.41-2.18-.38-4.64.08-7.4.81-4.89,6.5-7.27,10.94-5.27,3.83,1.74,4.74,6.35,4.47,10.38-.02.33-.21.5-.54.5l-10.48-.03h0Z"/>
  <path class="st0" d="M786.2,522.05c-.02,4-3.28,7.22-7.28,7.2h-1.48c-4-.02-7.22-3.28-7.2-7.29l.03-5.06c.02-4,3.28-7.22,7.28-7.2h1.48c4,.02,7.22,3.28,7.2,7.29l-.03,5.06Z"/>
  <path class="st0" d="M805.29,511.81c0,.21.26.32.41.16,2.3-2.61,4.97-2.96,8-1.05.3.17.33.4.11.66l-2.18,2.71c-.18.22-.39.28-.65.16-3.08-1.32-5.65-.22-5.69,3.29-.04,3.75-.05,7.32,0,10.71,0,.35-.17.52-.51.52h-3.52c-.35,0-.53-.18-.53-.53v-17.92c0-.34.17-.51.51-.51h3.36c.46-.01.69.23.69.69v1.11h0Z"/>
  <path class="st0" d="M820.96,521.26c-.53,0-.88.55-.67,1.04,1.39,3.22,5,3.96,7.91,1.92.36-.26.84-.23,1.17.07l1.73,1.55c.41.38.4.75-.03,1.1-4.75,3.88-13.24,3.22-14.57-3.85-.42-2.18-.4-4.65.06-7.4.79-4.9,6.49-7.3,10.94-5.3,3.83,1.72,4.75,6.34,4.5,10.37-.03.33-.21.5-.54.5h-10.5,0Z"/>
  <rect class="st0" x="140.52" y="509.98" width="4.5" height="19.02" rx=".48" ry=".48"/>
  <rect class="st0" x="791.53" y="509.99" width="4.48" height="19" rx=".43" ry=".43"/>
  <path class="st1" d="M37.76,518.04c-.25,0-.45-.2-.45-.45v-.19c-.02-2.04,1.62-3.71,3.66-3.73h.26c2.04-.02,3.72,1.62,3.73,3.67v.19c0,.25-.19.45-.44.45,0,0-6.76.06-6.76.06Z"/>
  <path class="st1" d="M104.56,518.01c-.15,0-.27-.12-.27-.27v-.33c-.01-2.05,1.66-3.72,3.73-3.73h.14c2.07-.01,3.76,1.65,3.77,3.71v.33c0,.15-.12.27-.27.27l-7.1.02h0Z"/>
  <path class="st1" d="M131.28,522.17c-.02,1.72-1.43,3.11-3.15,3.09h-.5c-1.72-.02-3.11-1.43-3.09-3.15l.05-5.28c.02-1.72,1.43-3.11,3.15-3.09h.5c1.72.02,3.11,1.43,3.09,3.15l-.05,5.28h0Z"/>
  <path class="st1" d="M245.76,518.02c-.25,0-.46-.21-.46-.46v-.17c0-2.05,1.64-3.72,3.67-3.72h.3c2.02,0,3.67,1.65,3.67,3.7v.17c0,.26-.2.46-.46.46l-6.72.02h0Z"/>
  <path class="st1" d="M290.34,522.06c.01,1.75-1.41,3.17-3.16,3.18h-.44c-1.75.01-3.17-1.41-3.18-3.16l-.02-5.14c-.01-1.75,1.41-3.17,3.16-3.18h.44c1.75-.01,3.17,1.41,3.18,3.16l.02,5.14Z"/>
  <path class="st1" d="M304.71,518.02c-.23,0-.42-.19-.42-.42v-.15c-.01-2.06,1.66-3.74,3.73-3.75h.14c2.07-.01,3.76,1.65,3.77,3.71v.15c0,.23-.19.42-.42.42l-6.8.04Z"/>
  <path class="st1" d="M438.67,518.01c-.19,0-.35-.16-.35-.35v-.28c0-2.04,1.69-3.69,3.77-3.69h.08c2.08,0,3.77,1.65,3.77,3.69v.28c0,.19-.16.35-.35.35h-6.92,0Z"/>
  <path class="st1" d="M468.66,518.03c-.19,0-.35-.15-.35-.33v-.26c-.01-2.06,1.65-3.74,3.72-3.75h.14c2.08-.01,3.77,1.64,3.78,3.69v.26c0,.19-.15.34-.34.35l-6.95.04h0Z"/>
  <path class="st1" d="M534.64,518c-.19-.01-.34-.16-.34-.36v-.27c.01-2.05,1.72-3.7,3.81-3.69h.08c2.08.01,3.76,1.69,3.75,3.75v.27c0,.19-.16.35-.36.34l-6.94-.04h0Z"/>
  <path class="st1" d="M603.76,517.98c-.25,0-.45-.2-.44-.45v-.19c.01-2.05,1.72-3.69,3.8-3.67h.1c2.08.02,3.75,1.69,3.74,3.73v.19c-.01.25-.21.45-.46.45l-6.74-.06h0Z"/>
  <path class="st1" d="M710.31,522.09c0,1.74-1.43,3.15-3.18,3.14h-.46c-1.75-.01-3.15-1.43-3.14-3.18l.03-5.14c0-1.74,1.43-3.15,3.18-3.14h.46c1.75.01,3.15,1.43,3.14,3.18l-.03,5.14Z"/>
  <path class="st1" d="M723.78,518c-.25,0-.46-.21-.46-.46v-.18c.01-2.05,1.7-3.7,3.78-3.69h.1c2.07.01,3.75,1.67,3.74,3.71v.18c0,.26-.2.46-.46.46l-6.7-.02h0Z"/>
  <path class="st1" d="M820.65,518.01c-.19,0-.34-.15-.34-.34v-.28c0-2.05,1.68-3.71,3.75-3.71h.14c2.07,0,3.75,1.67,3.75,3.73v.28c0,.18-.16.34-.34.34l-6.96-.02h0Z"/>
  <rect class="st1" x="151.64" y="515.88" width="11.04" height="7.26" rx="3.3" ry="3.3" transform="translate(-363.19 673.86) rotate(-89.69)"/>
  <path class="st1" d="M781.78,521.68c0,1.84-1.5,3.33-3.34,3.32h-.62c-1.84-.01-3.32-1.5-3.32-3.34l.02-4.36c0-1.84,1.5-3.33,3.34-3.32h.62c1.84.01,3.32,1.5,3.32,3.34l-.02,4.36Z"/>
  <path class="st0" d="M274.49,521.06c0,.24-.2.43-.43.43l-11.9-.02c-.24,0-.43-.19-.43-.43v-3.38c0-.24.2-.43.44-.43l11.9.02c.24,0,.43.19.43.43v3.38h-.01Z"/>
  <rect class="st0" x="320.74" y="517.24" width="12.74" height="4.24" rx=".36" ry=".36"/>
  <path class="st0" d="M632.49,521.11c0,.21-.17.37-.37.37l-12.04-.02c-.21,0-.37-.17-.37-.37v-3.48c0-.21.17-.37.38-.37l12.04.02c.21,0,.37.17.37.37v3.48h-.01Z"/>
  <path class="st1" d="M385.37,521.24c.51-.02.93.39.94.89l.04,1.43c.03,1.15-1.2,2.1-2.74,2.15l-1.84.04c-1.55.04-2.83-.85-2.86-1.99l-.03-1.43c-.02-.51.39-.93.89-.95l5.6-.14h0Z"/>
  <path class="st1" d="M669.26,521.76v2.59c0,.35-.16.59-.47.73-1.66.75-3.38.9-5.15.46-1.91-.48-2.4-2.53-1.15-3.88.23-.26.53-.39.88-.39h5.4c.33,0,.49.16.49.49Z"/>
</svg>